<svg xmlns="http://www.w3.org/2000/svg" version="1.1" xmlns:xlink="http://www.w3.org/1999/xlink" xmlns:svgjs="http://svgjs.dev/svgjs" width="1000" height="1000" viewBox="0 0 1000 1000"><g transform="matrix(1,0,0,1,-0.14221556886212738,-0.14221556886229791)"><svg viewBox="0 0 334 334" data-background-color="#ffffff" preserveAspectRatio="xMidYMid meet" height="1000" width="1000" xmlns="http://www.w3.org/2000/svg" xmlns:xlink="http://www.w3.org/1999/xlink"><g id="tight-bounds" transform="matrix(1,0,0,1,0.04749999999998522,0.04750000000001364)"><svg viewBox="0 0 333.90454557049503 333.90454557049503" height="333.90454557049503" width="333.90454557049503"><g><svg></svg></g><g><svg viewBox="0 0 333.90454557049503 333.90454557049503" height="333.90454557049503" width="333.90454557049503"><g><path d="M0 166.952c0-92.205 74.747-166.952 166.952-166.952 92.205 0 166.952 74.747 166.953 166.952 0 92.205-74.747 166.952-166.953 166.953-92.205 0-166.952-74.747-166.952-166.953zM166.952 329.586c89.82 0 162.634-72.814 162.634-162.634 0-89.82-72.814-162.634-162.634-162.633-89.82 0-162.634 72.814-162.633 162.633 0 89.82 72.814 162.634 162.633 162.634z" data-fill-palette-color="tertiary" fill="#a62a6c" stroke="transparent"></path><ellipse rx="160.27418187383762" ry="160.27418187383762" cx="166.95227278524752" cy="166.95227278524752" fill="#a62a6c" stroke="transparent" stroke-width="0" fill-opacity="1" data-fill-palette-color="tertiary"></ellipse></g><g transform="matrix(1,0,0,1,89.419792314131,71.17305217166896)"><svg viewBox="0 0 155.06496094223303 191.55844122715712" height="191.55844122715712" width="155.06496094223303"><g><svg viewBox="0 0 155.06496094223303 191.55844122715712" height="191.55844122715712" width="155.06496094223303"><g><svg viewBox="0 0 213.1584412271571 263.3238256261917" height="191.55844122715712" width="155.06496094223303"><g transform="matrix(1,0,0,1,0,197.494119984051)"><svg viewBox="0 0 213.1584412271571 65.82970564214074" height="65.82970564214074" width="213.1584412271571"><g><svg viewBox="0 0 213.1584412271571 65.82970564214074" height="65.82970564214074" width="213.1584412271571"><g><svg viewBox="0 0 213.1584412271571 65.82970564214074" height="65.82970564214074" width="213.1584412271571"><g transform="matrix(1,0,0,1,0,0)"><svg width="213.1584412271571" viewBox="4.150000095367432 -34.900001525878906 114.93999481201172 35.5" height="65.82970564214074" data-palette-color="#ffffff"><path d="M22.85 0L11.25-22.65 8.2-29.85 7.7-29.85 8.05-22.65 8.05 0 4.15 0 4.15-34.9 9.05-34.9 20.65-12.25 23.7-5.05 24.2-5.05 23.85-12.25 23.85-34.9 27.75-34.9 27.75 0 22.85 0ZM44.45 0.6L44.45 0.6Q42.2 0.6 40.25-0.15 38.3-0.9 36.9-2.55 35.5-4.2 34.7-6.75 33.9-9.3 33.9-12.9L33.9-12.9Q33.9-16.5 34.7-19.05 35.5-21.6 36.9-23.25 38.3-24.9 40.25-25.65 42.2-26.4 44.45-26.4L44.45-26.4Q46.7-26.4 48.57-25.65 50.45-24.9 51.75-23.25 53.05-21.6 53.77-19.05 54.5-16.5 54.5-12.9L54.5-12.9 54.5-11.95 37.95-11.95 37.95-10.3Q37.95-6.5 39.67-4.63 41.4-2.75 44.45-2.75L44.45-2.75Q47.05-2.75 48.7-3.88 50.35-5 51.3-7.25L51.3-7.25 53.9-5.35Q52.7-2.7 50.37-1.05 48.05 0.6 44.45 0.6ZM44.45-23.2L44.45-23.2Q41.35-23.2 39.65-21.25 37.95-19.3 37.95-15.5L37.95-15.5 37.95-14.85 50.45-14.85 50.45-15.5Q50.45-23.2 44.45-23.2ZM69.19 0.6L69.19 0.6Q66.94 0.6 65-0.15 63.05-0.9 61.64-2.55 60.24-4.2 59.45-6.75 58.64-9.3 58.64-12.9L58.64-12.9Q58.64-16.5 59.45-19.05 60.24-21.6 61.64-23.25 63.05-24.9 65-25.65 66.94-26.4 69.19-26.4L69.19-26.4Q71.44-26.4 73.32-25.65 75.19-24.9 76.5-23.25 77.8-21.6 78.52-19.05 79.25-16.5 79.25-12.9L79.25-12.9 79.25-11.95 62.7-11.95 62.7-10.3Q62.7-6.5 64.42-4.63 66.14-2.75 69.19-2.75L69.19-2.75Q71.8-2.75 73.44-3.88 75.09-5 76.05-7.25L76.05-7.25 78.64-5.35Q77.44-2.7 75.12-1.05 72.8 0.6 69.19 0.6ZM69.19-23.2L69.19-23.2Q66.09-23.2 64.39-21.25 62.7-19.3 62.7-15.5L62.7-15.5 62.7-14.85 75.19-14.85 75.19-15.5Q75.19-23.2 69.19-23.2ZM94.99 0L90.34 0Q88.29 0 87.37-0.93 86.44-1.85 86.44-3.9L86.44-3.9 86.44-22.45 82.64-22.45 82.64-25.8 84.89-25.8Q86.04-25.8 86.42-26.38 86.79-26.95 86.79-28.1L86.79-28.1 86.79-32.9 90.24-32.9 90.24-25.8 95.24-25.8 95.24-22.45 90.24-22.45 90.24-3.35 94.99-3.35 94.99 0ZM115.29 0L115.29-4.2 114.79-4.2Q114.04-1.8 112.47-0.6 110.89 0.6 108.19 0.6L108.19 0.6Q104.74 0.6 102.77-1.75 100.79-4.1 100.79-9L100.79-9 100.79-25.8 104.59-25.8 104.59-9.25Q104.59-6.15 105.87-4.5 107.14-2.85 109.79-2.85L109.79-2.85Q112.09-2.85 113.69-4.25 115.29-5.65 115.29-8.2L115.29-8.2 115.29-25.8 119.09-25.8 119.09 0 115.29 0Z" opacity="1" transform="matrix(1,0,0,1,0,0)" fill="#ffffff" class="undefined-text-0" data-fill-palette-color="quaternary" id="text-0"></path></svg></g></svg></g></svg></g></svg></g><g transform="matrix(1,0,0,1,37.76468794699554,0)"><svg viewBox="0 0 137.62906533316604 181.953306394877" height="181.953306394877" width="137.62906533316604"><g><svg xmlns="http://www.w3.org/2000/svg" xmlns:xlink="http://www.w3.org/1999/xlink" version="1.1" x="0" y="0" viewBox="15.961999893188477 4.999750137329102 68.07599639892578 90.0002670288086" enable-background="new 0 0 100 100" xml:space="preserve" height="181.953306394877" width="137.62906533316604" class="icon-icon-0" data-fill-palette-color="quaternary" id="icon-0"><g fill="#ffffff" data-fill-palette-color="quaternary"><path fill="none" d="M58.79 24.9l-6.093 2.669c-1.094 1.094-3.491 1.094-4.589 0l-7.685-3.437c-0.679 2.666 0.004 6.756 0.006 6.756-0.691-0.482-1.325-0.733-1.842-0.863 0.762 8.273 5.612 14.651 11.485 14.651 5.97 0 10.881-6.59 11.518-15.06 0.08-0.547 0.123-1.107 0.131-1.674l-1.862 2.139C60.402 28.878 59.634 26.694 58.79 24.9z"></path><path d="M55.036 54.125h19.532c-2.601-5.29-7.821-9.06-13.968-9.622C60.566 46.092 57.792 50.313 55.036 54.125z" fill="#ffffff" data-fill-palette-color="quaternary"></path><path d="M39.545 44.504c-6.149 0.562-11.366 4.331-13.972 9.621h19.051C42.11 50.313 39.579 46.092 39.545 44.504z" fill="#ffffff" data-fill-palette-color="quaternary"></path><circle cx="50" cy="73.043" r="1.7" fill="#ffffff" data-fill-palette-color="quaternary"></circle><path d="M77.413 92.207H22.588c-0.771 0-1.396 0.626-1.396 1.397 0 0.771 0.625 1.396 1.396 1.396h54.825c0.771 0 1.396-0.626 1.396-1.396C78.808 92.833 78.183 92.207 77.413 92.207z" fill="#ffffff" data-fill-palette-color="quaternary"></path><path d="M25.758 91.381h48.487c1.801 0 3.264-1.46 3.264-3.265l6.529-30.727c0-1.803-1.462-3.265-3.265-3.265h-6.204c0.088 0.175 0.173 0.351 0.254 0.528h5.654c1.785 0 3.234 1.431 3.234 3.195l-6.531 29.807c0 1.766-1.447 3.197-3.233 3.197H26.053c-1.786 0-3.233-1.433-3.233-3.197l-6.53-29.805c0-1.767 1.447-3.195 3.232-3.195h5.797c0.081-0.18 0.168-0.354 0.254-0.528h-6.346c-1.803 0-3.265 1.461-3.265 3.265l6.529 30.727C22.492 89.921 23.955 91.381 25.758 91.381z" fill="#ffffff" data-fill-palette-color="quaternary"></path><path d="M44.975 54.653c-0.117-0.176-0.234-0.351-0.353-0.527H25.573c-0.086 0.175-0.173 0.352-0.253 0.527H44.975z" fill="#ffffff" data-fill-palette-color="quaternary"></path><path d="M55.035 54.126h-3.6l-0.181-2.579c1.22-0.63 2.165-1.941 2.165-3.274 0 0-1.814 0.801-3.661 0.801-1.85 0-3.662-0.801-3.662-0.801 0 1.333 0.944 2.644 2.163 3.274l-0.181 2.579h-3.455c0.117 0.178 0.233 0.354 0.353 0.527h3.066 3.429 0.001 3.179 20.172c-0.081-0.178-0.166-0.354-0.254-0.527H55.035z" fill="#ffffff" data-fill-palette-color="quaternary"></path><path d="M32.247 14.827l-0.092 1.266c-0.489 0.083-0.866 0.511-0.866 1.028 0 0.465 0.304 0.856 0.724 0.993l-0.839 11.757 1.158 3.476 1.158-3.476-0.84-11.757c0.419-0.138 0.724-0.528 0.724-0.993 0-0.518-0.375-0.945-0.866-1.028l-0.085-1.165 2.009 1.163 0.081 0.048 3.804 2.201-0.247 3.139c-0.536 1.195-0.923 2.478-1.119 3.829-0.101 0.691-0.15 1.398-0.15 2.12 0 0.292 0.01 0.582 0.025 0.871 0.024 0.42 0.064 0.837 0.125 1.248 0.01 0.125 0.021 0.249 0.03 0.373 0.838 9.47 6.379 16.788 13.092 16.788 6.798 0 12.393-7.507 13.119-17.156 0.1-0.693 0.152-1.403 0.152-2.126 0-0.723-0.053-1.432-0.152-2.125-0.206-1.419-0.625-2.762-1.204-4.007l-0.246-2.451 3.89-2.251 0.869-0.501 3.619-2.092c0.227-0.229 0.227-0.596 0-0.822L50.875 5.17c-0.226-0.227-0.592-0.227-0.817 0l-19.244 8.006c-0.229 0.226-0.229 0.593 0 0.822L32.247 14.827zM61.591 29.617c-0.637 8.47-5.548 15.06-11.518 15.06-5.873 0-10.724-6.378-11.485-14.651 0.517 0.13 1.15 0.381 1.842 0.863-0.001 0-0.685-4.09-0.006-6.756l7.685 3.437c1.098 1.094 3.495 1.094 4.589 0L58.79 24.9c0.844 1.794 1.612 3.978 1.069 5.181l1.862-2.139C61.714 28.509 61.671 29.069 61.591 29.617z" fill="#ffffff" data-fill-palette-color="quaternary"></path></g></svg></g></svg></g><g></g></svg></g></svg></g></svg></g></svg></g><defs></defs></svg><rect width="333.90454557049503" height="333.90454557049503" fill="none" stroke="none" visibility="hidden"></rect></g></svg></g></svg>